<svg width="25" height="25" viewBox="0 0 25 25" fill="none" xmlns="http://www.w3.org/2000/svg">
<path fill-rule="evenodd" clip-rule="evenodd" d="M23.4062 16.8078C23.4062 19.0871 21.5522 20.9383 19.2758 20.9383H5.7243C3.4479 20.9383 1.59376 19.087 1.59376 16.8078V8.18518C1.59376 7.42447 1.80205 6.70998 2.16359 6.09677L8.77586 12.709C9.76511 13.7012 11.0899 14.2479 12.5014 14.2479C13.9101 14.2479 15.2348 13.7012 16.2241 12.709L22.8364 6.09677C23.198 6.70998 23.4062 7.42441 23.4062 8.18518V16.8078H23.4062ZM19.2757 4.0547H5.7243C4.78424 4.0547 3.91645 4.37285 3.22226 4.90219L9.90107 11.5839C10.5924 12.2723 11.5151 12.6541 12.5014 12.6541C13.4849 12.6541 14.4076 12.2723 15.0989 11.5839L21.7777 4.90219C21.0835 4.37285 20.2158 4.0547 19.2757 4.0547ZM19.2757 2.46094H5.7243C2.56856 2.46094 0 5.0295 0 8.18524V16.8078C0 19.9665 2.56856 22.5321 5.7243 22.5321H19.2757C22.4314 22.5321 25 19.9665 25 16.8078V8.18518C25 5.02945 22.4314 2.46094 19.2757 2.46094Z" fill="black"/>
</svg>
