<svg width="25" height="25" viewBox="0 0 25 25" fill="none" xmlns="http://www.w3.org/2000/svg">
<g clip-path="url(#clip0_5698_234143)">
<path d="M24.7216 18.6035C24.5198 18.1552 24.1965 17.7725 23.7882 17.4986L19.9263 14.7574C19.6211 14.543 19.2942 14.3614 18.9508 14.2158C18.5898 14.0541 18.1952 13.9813 17.8002 14.0036C17.4053 14.026 17.0214 14.1427 16.6809 14.3441C16.2939 14.5576 15.9413 14.8283 15.6351 15.1469L14.797 15.9271C14.3158 15.6535 13.8648 15.33 13.4514 14.9618C12.9212 14.5122 12.3488 13.983 11.6618 13.3074C11.1247 12.76 10.5853 12.173 10.0187 11.5167C9.6644 11.1165 9.34598 10.686 9.06711 10.2301C9.05916 10.2062 9.04893 10.1801 9.03759 10.1506L9.83019 9.32619C10.1322 9.03262 10.3942 8.70044 10.6092 8.33827C10.8497 7.95457 10.9783 7.51135 10.9805 7.05851C10.9754 6.70006 10.8982 6.3463 10.7534 6.01836C10.6065 5.66762 10.4177 5.33591 10.1913 5.03044L7.49892 1.23433C7.21685 0.826129 6.83011 0.501364 6.37928 0.294113C5.96752 0.0994379 5.51755 -0.00103197 5.06208 7.99168e-06C4.49581 0.00925322 3.93711 0.13177 3.41893 0.360337C2.90075 0.588904 2.43357 0.918895 2.04493 1.33086C1.36836 1.95732 0.839691 2.72651 0.497255 3.58263C0.1743 4.40023 0.0108511 5.27211 0.0157311 6.15117C0.0388273 7.5793 0.346903 8.98842 0.921883 10.2959C1.56083 11.757 2.35781 13.1438 3.29857 14.4315C4.31103 15.8166 5.42625 17.1235 6.63478 18.3412C7.85488 19.5503 9.16322 20.6669 10.549 21.6819C11.8444 22.6366 13.244 23.4412 14.721 24.0801C16.0221 24.6626 17.4278 24.9755 18.8532 24.9999C19.7442 25.0045 20.6272 24.8323 21.4513 24.4935C22.3038 24.1382 23.0639 23.5929 23.6735 22.8992C24.0529 22.4824 24.3672 22.0107 24.6058 21.5002C24.8515 20.9884 24.9796 20.4282 24.9805 19.8605C24.9773 19.4286 24.8894 19.0015 24.7216 18.6035ZM23.0286 20.7554C22.8633 21.1103 22.6451 21.4381 22.3813 21.7274C21.9441 22.2282 21.3985 22.6228 20.7859 22.8811C19.9073 23.1762 18.9784 23.2924 18.0542 23.2228C17.13 23.1532 16.229 22.8992 15.4045 22.4757C14.0494 21.8884 12.7653 21.1493 11.5766 20.2728C10.2637 19.3112 9.02406 18.2534 7.86797 17.108C6.72488 15.956 5.67002 14.7197 4.71232 13.4096C3.84768 12.2288 3.1154 10.9565 2.52867 9.61575C2.04488 8.5234 1.78354 7.34563 1.75992 6.15117C1.7554 5.49219 1.8772 4.83844 2.11874 4.2253C2.37099 3.60162 2.75888 3.04189 3.25428 2.58672C3.48347 2.33194 3.7617 2.126 4.07233 1.98124C4.38295 1.83647 4.71958 1.75585 5.06208 1.7442C5.26151 1.74357 5.45857 1.78741 5.63893 1.87251C5.81391 1.95242 5.96386 2.07842 6.07271 2.23702L8.77413 6.04562C8.9228 6.24549 9.04707 6.4624 9.14432 6.69173C9.19739 6.80725 9.22858 6.93162 9.2363 7.05851C9.2308 7.20025 9.18555 7.33758 9.10571 7.45481C8.9609 7.69337 8.7857 7.91209 8.58451 8.10548L7.71582 9.00932C7.57243 9.1505 7.45916 9.31929 7.38284 9.50548C7.30653 9.69168 7.26876 9.89141 7.27182 10.0926C7.27414 10.2883 7.30474 10.4826 7.36267 10.6695L7.50685 11.0135C7.84913 11.5961 8.2465 12.1444 8.69348 12.651C9.29077 13.3414 9.85395 13.9558 10.4274 14.5406C11.1576 15.2582 11.7606 15.8147 12.3238 16.2927C12.8338 16.7407 13.3886 17.1349 13.9794 17.4691L14.2883 17.6054C14.574 17.7111 14.8836 17.7349 15.1821 17.6741C15.4807 17.6134 15.7563 17.4704 15.978 17.2613L16.8648 16.3847C17.0612 16.1776 17.2879 16.0015 17.5371 15.8623C17.6415 15.7748 17.7719 15.7242 17.9081 15.7184C18.0442 15.7127 18.1785 15.7521 18.2899 15.8306C18.5149 15.9271 18.7292 16.047 18.9292 16.1883L22.7866 18.9272C22.9262 19.0119 23.0394 19.1338 23.1137 19.2792C23.1929 19.4629 23.2346 19.6605 23.2363 19.8606C23.2351 20.1707 23.164 20.4765 23.0286 20.7554Z" fill="black"/>
</g>
<defs>
<clipPath id="clip0_5698_234143">
<rect width="25" height="25" fill="white"/>
</clipPath>
</defs>
</svg>
